<svg width="361" height="713" viewBox="0 0 361 713" fill="none" xmlns="http://www.w3.org/2000/svg">
<rect x="0.835938" width="360" height="712.46" fill="#F4F6FF"/>
<path opacity="0.2" d="M0.835938 132.501C19.7354 132.501 38.4499 129.074 55.9108 122.415C73.3716 115.756 89.237 105.996 102.601 93.6922C115.965 81.3884 126.566 66.7816 133.798 50.7059C141.031 34.6301 144.753 17.4003 144.753 5.62509e-07L130.776 0C130.776 15.7103 127.415 31.2668 120.885 45.7812C114.355 60.2957 104.783 73.4838 92.7173 84.5927C80.6513 95.7016 66.3268 104.514 50.5618 110.526C34.7968 116.538 17.8999 119.632 0.835938 119.632L0.835938 132.501Z" fill="#D7E6FF"/>
<path opacity="0.1" d="M0.835938 174.827C25.728 174.827 50.3763 170.305 73.3735 161.52C96.3708 152.734 117.267 139.856 134.868 123.622C152.469 107.387 166.431 88.1146 175.957 66.9036C185.483 45.6925 190.386 22.9587 190.386 7.42199e-07L171.976 0C171.976 20.7289 167.55 41.2548 158.949 60.4058C150.348 79.5568 137.742 96.9578 121.85 111.615C105.959 126.273 87.0922 137.9 66.3285 145.832C45.5648 153.765 23.3104 157.848 0.835938 157.848L0.835938 174.827Z" fill="#D7E6FF"/>
<path opacity="0.4" d="M0.835938 97.5353C14.6648 97.5353 28.3583 95.0125 41.1346 90.1109C53.9108 85.2093 65.5196 78.0249 75.2981 68.9679C85.0766 59.9109 92.8334 49.1587 98.1255 37.3251C103.418 25.4916 106.141 12.8085 106.141 4.14069e-07L95.9139 0C95.9139 11.5645 93.4547 23.0158 88.6766 33.7001C83.8984 44.3843 76.895 54.0923 68.0662 62.2696C59.2374 70.447 48.7561 76.9336 37.2207 81.3592C25.6853 85.7847 13.3218 88.0625 0.835938 88.0625L0.835938 97.5353Z" fill="#D7E6FF"/>
<path opacity="0.5" d="M0.835938 62.5698C9.59425 62.5698 18.2668 60.9514 26.3584 57.807C34.45 54.6626 41.8023 50.0537 47.9953 44.2436C54.1884 38.4334 59.101 31.5358 62.4526 23.9444C65.8043 16.3531 67.5294 8.21679 67.5294 0L35.6141 3.56231e-06C35.6141 4.28475 34.7145 8.52754 32.9667 12.4861C31.219 16.4447 28.6572 20.0416 25.4278 23.0714C22.1983 26.1011 18.3644 28.5045 14.1449 30.1442C9.92548 31.7839 5.40307 32.6278 0.835939 32.6278L0.835938 62.5698Z" fill="#D7E6FF"/>
<path opacity="0.2" d="M360.836 579.499C341.936 579.499 323.222 582.926 305.761 589.585C288.3 596.244 272.435 606.004 259.071 618.308C245.707 630.612 235.106 645.218 227.874 661.294C220.641 677.37 216.918 694.6 216.918 712L230.896 712C230.896 696.29 234.257 680.733 240.787 666.219C247.317 651.704 256.888 638.516 268.955 627.407C281.021 616.298 295.345 607.486 311.11 601.474C326.875 595.462 343.772 592.368 360.836 592.368L360.836 579.499Z" fill="#D7E6FF"/>
<path opacity="0.1" d="M360.836 537.173C335.944 537.173 311.296 541.695 288.298 550.48C265.301 559.266 244.405 572.144 226.804 588.378C209.203 604.613 195.241 623.885 185.715 645.096C176.189 666.307 171.286 689.041 171.286 712L189.696 712C189.696 691.271 194.122 670.745 202.723 651.594C211.323 632.443 223.93 615.042 239.821 600.385C255.713 585.727 274.58 574.1 295.343 566.168C316.107 558.235 338.361 554.152 360.836 554.152L360.836 537.173Z" fill="#D7E6FF"/>
<path opacity="0.4" d="M360.836 614.465C347.007 614.465 333.314 616.988 320.537 621.889C307.761 626.791 296.152 633.975 286.374 643.032C276.595 652.089 268.838 662.841 263.546 674.675C258.254 686.508 255.531 699.191 255.531 712L265.758 712C265.758 700.435 268.217 688.984 272.995 678.3C277.773 667.616 284.777 657.908 293.606 649.73C302.434 641.553 312.916 635.066 324.451 630.641C335.987 626.215 348.35 623.937 360.836 623.937L360.836 614.465Z" fill="#D7E6FF"/>
<path opacity="0.5" d="M360.836 649.43C352.078 649.43 343.405 651.049 335.313 654.193C327.222 657.337 319.87 661.946 313.677 667.756C307.483 673.567 302.571 680.464 299.219 688.056C295.868 695.647 294.142 703.783 294.142 712L326.058 712C326.058 707.715 326.957 703.472 328.705 699.514C330.453 695.555 333.015 691.958 336.244 688.929C339.474 685.899 343.307 683.496 347.527 681.856C351.746 680.216 356.269 679.372 360.836 679.372L360.836 649.43Z" fill="#D7E6FF"/>
</svg>
